<svg width="472" height="761" fill="none" xmlns="http://www.w3.org/2000/svg"><g clip-path="url(#a)"><path d="M171.71 3S18.58 35.43 12.273 122.074c-6.307 86.643 231.598 17.186 136.358 198-95.241 180.813-181.318 185.289-136.358 298C57.233 730.785 177.96 789.953 318.21 745.2c140.251-44.754 153.453-332.126 153.453-332.126" stroke="#D0D5F6" stroke-width="2"/></g><path d="M213.7 3S93.575 31.481 88.628 107.575c-4.948 76.093 181.679 15.094 106.966 173.89C120.882 440.262 53.359 444.192 88.628 543.179c35.269 98.986 129.974 150.95 239.995 111.646C438.643 615.521 449 363.141 449 363.141" stroke="#D0D5F6" stroke-width="2"/><path d="M249.935 1s-90.905 24.841-94.649 91.208c-3.744 66.367 137.487 13.165 80.948 151.664s-107.638 141.927-80.948 228.261c26.69 86.335 98.359 131.656 181.618 97.376S428 315.108 428 315.108" stroke="#D0D5F6" stroke-width="2"/><defs><clipPath id="a"><path fill="#fff" transform="translate(0 3)" d="M0 0h471.663v757.201H0z"/></clipPath></defs></svg>